<?xml version="1.0" encoding="iso-8859-1"?>
<!-- Uploaded to: SVG Repo, www.svgrepo.com, Generator: SVG Repo Mixer Tools -->
<svg height="800px" width="800px" version="1.1" id="Layer_1" xmlns="http://www.w3.org/2000/svg" xmlns:xlink="http://www.w3.org/1999/xlink" 
	 viewBox="0 0 512 512" xml:space="preserve">
<path d="M408.181,85.76C392.224,54.869,352.629,3.584,265.248,0.171C262.262,0.085,259.104,0,255.947,0
	c-23.296,0-43.435,3.328-60.757,8.789c-52.395,16.555-79.019,52.821-91.477,76.8c-24.747,47.957-24.576,108.288,0.341,143.616
	c0.085,0,0.085,0,0.085,0c0,0.085,0,0.085,0.085,0.085l37.632,50.944l28.757,38.315v31.317c0,1.877,0.597,3.669,1.707,5.12
	l8.96,11.947L194.08,384l3.84,5.12c1.621,2.133,4.181,3.413,6.827,3.413h8.533v85.333c0,0.939,0.171,1.792,0.427,2.731l1.963,5.803
	l5.632,17.067l0.939,2.731c1.195,3.413,4.437,5.803,8.107,5.803h51.2c3.669,0,6.912-2.389,8.107-5.803l8.533-25.6
	c0.256-0.939,0.427-1.792,0.427-2.731v-85.333h8.533c2.645,0,5.205-1.28,6.827-3.413l25.6-34.133
	c1.109-1.451,1.707-3.243,1.707-5.12v-31.317l66.475-88.576c0.085-0.085,0.085-0.085,0.085-0.171c0,0,0.085,0,0.085-0.085
	C432.928,194.389,433.013,133.888,408.181,85.76z M281.547,476.501l-6.144,18.432h-38.912l-6.144-18.432v-83.968h51.2
	L281.547,476.501L281.547,476.501z M394.016,219.904l-68.096,90.709c-1.109,1.451-1.707,3.243-1.707,5.12v31.317l-21.333,28.416
	h-93.867l-6.4-8.533l-14.933-19.883v-31.317c0-1.877-0.597-3.669-1.707-5.12l-67.925-91.307
	c-10.581-15.019-15.872-35.499-15.872-57.515c0-22.613,5.547-46.763,16.64-68.352c14.763-28.501,52.224-76.373,137.131-76.373
	c1.963,0,3.925,0,5.888,0.085c20.48,0.512,38.059,3.925,53.077,9.216c44.459,15.275,67.328,46.421,78.08,67.243
	C415.094,136.363,415.52,189.44,394.016,219.904z"/>
<path style="fill:#F6981E;" d="M394.016,219.904l-68.096,90.709c-1.109,1.451-1.707,3.243-1.707,5.12v31.317l-21.333,28.416h-36.437
	l21.76-29.013c1.109-1.451,1.707-3.243,1.707-5.12v-31.317l66.475-88.576c0.085-0.085,0.085-0.085,0.085-0.171
	c0,0,0.085,0,0.085-0.085c25.003-35.328,25.173-95.829,0.256-143.957c-7.68-14.763-20.736-34.304-41.899-50.859
	c44.459,15.275,67.328,46.421,78.08,67.243C415.094,136.363,415.52,189.44,394.016,219.904z"/>
<path style="fill:#FDB50D;" d="M356.555,221.184c0,0.085-0.085,0.085-0.085,0.085c0,0.085,0,0.085-0.085,0.171l-66.475,88.576
	v31.317c0,1.877-0.597,3.669-1.707,5.12l-21.76,29.013h-57.429l-6.4-8.533l-14.933-19.883v-31.317c0-1.877-0.597-3.669-1.707-5.12
	l-67.925-91.307c-10.581-15.019-15.872-35.499-15.872-57.515c0-22.613,5.547-46.763,16.64-68.352
	c14.763-28.501,52.224-76.373,137.131-76.373c1.963,0,3.925,0,5.888,0.085c20.48,0.512,38.059,3.925,53.077,9.216
	c21.163,16.555,34.219,36.096,41.899,50.859C381.728,125.355,381.557,185.856,356.555,221.184z"/>
<polygon style="fill:#AFAFAF;" points="281.231,392.533 281.231,476.501 275.087,494.933 236.175,494.933 230.031,476.501 
	230.031,392.533 "/>
<path style="fill:#7E939E;" d="M281.231,392.533v83.968l-6.229,18.432h-16.299l4.779-14.336c0.341-0.939,0.427-1.792,0.427-2.731
	v-85.333H281.231z"/>
</svg>